<?xml version="1.0" encoding="utf-8"?>
<!-- Generator: Adobe Illustrator 18.0.0, SVG Export Plug-In . SVG Version: 6.00 Build 0)  -->
<!DOCTYPE svg PUBLIC "-//W3C//DTD SVG 1.1//EN" "http://www.w3.org/Graphics/SVG/1.1/DTD/svg11.dtd">
<svg version="1.1" id="Layer_1" xmlns="http://www.w3.org/2000/svg" xmlns:xlink="http://www.w3.org/1999/xlink" x="0px" y="0px"
	 viewBox="0 0 513 104" style="enable-background:new 0 0 513 104;" xml:space="preserve">
<g>
	<path d="M58.8,82c-5.3,5.5-10,9.4-14.2,11.8c-5.3,3.1-10.9,4.7-16.7,4.7c-6.3,0-11.8-1.5-16.4-4.4C6.2,90.7,2.7,85.8,1,79.3
		c-0.5-2-0.8-4-0.8-6c0-4.5,1.3-8.9,4-13.1c2.4-4,5.5-7.1,9.2-9.4c2.3-1.4,4.9-2.6,8-3.5c-5.8-3.8-8.7-9.1-8.7-15.7
		c0-1.8,0.2-3.7,0.7-5.6c1.4-5.9,4.9-10.7,10.7-14.4c5.1-3.4,10.6-5.1,16.3-5.1c6.6,0,11.2,2,14,6c1.2,1.7,2.1,4.2,2.6,7.3
		l-8.8,11.6c0-3.9-0.7-7.5-2-10.9c-1.7-4.2-4.1-6.2-7.1-6.2c-3.2,0-5.8,2.2-7.8,6.6c-1.7,3.7-2.6,7.6-2.6,11.6
		c0,1.3,0.1,2.3,0.2,3.1c0.6,3.2,2.5,5.3,5.8,6.4c1.9,0.6,4.7,0.9,8.6,0.9l-2.8,11.6c-3.2-0.6-5.7-0.9-7.6-0.9
		c-6.9,0-11.5,3.6-13.7,10.9c-0.6,2-0.9,4.1-0.9,6.2c0,4.7,1.2,8.7,3.6,12c2.5,3.6,5.7,5.4,9.7,5.5c0.4,0,0.8,0,1.4,0.1
		c0.5,0,0.7,0,0.8,0c7.1,0,15-5.2,23.7-15.7L58.8,82z"/>
	<path d="M111.8,70.6c-4.1,4-8.4,9-12.6,15c-2.8,3.8-6.4,9.4-10.9,16.8l-15.3,2.1l8.1-29.9c-5.4,4.9-10.8,7.3-16.2,7.3
		c-4.8,0-8.2-2.2-10.4-6.7c-1.2-2.4-1.8-5-1.8-7.7c0-4.3,1.4-8.7,4.3-13.3c2.4-4,5.4-7.3,8.9-9.9c5-3.8,10.1-5.7,15.3-5.7
		c4.7,0,8.1,2,10.2,6.1l8.7-5.7l5.3-0.4l-10.9,42c5-6.4,10.8-11.7,17.4-15.9V70.6z M82,45.3c-3.5,0-6.8,2.4-10,7.3
		c-3.2,4.8-4.8,9.3-4.8,13.5c0,3.5,1.4,5.2,4.2,5.2c3.5,0,6.8-2.5,10.1-7.4c3.1-4.6,4.6-9,4.6-13.2C86.1,47.1,84.7,45.3,82,45.3z"/>
	<path d="M167.9,70.5c-5.6,5.3-10.6,8.8-15,10.6c-1.4,0.6-2.7,0.9-3.8,0.9c-6.8,0-10.8-3-12.1-9c-6.5,6-12.3,9-17.4,9
		c-7.2,0-10.9-4.6-10.9-13.8c0-3.6,0.5-7.5,1.5-11.7c0.7-2.6,2.2-7.5,4.5-14.7l16.6-3.2l-2.4,7.8c-0.8,2.7-1.9,6.2-3.2,10.7
		c-1.3,4.4-1.9,8-1.9,10.7c0,2.8,0.8,4.2,2.4,4.2c1.9,0,3.9-1.1,6.1-3.3c1.1-1.1,2.7-3.1,4.7-6c0.5-3.5,1.7-7.9,3.4-13.2l2.6-8
		l16.8-2.9l-5.7,19.3c-0.8,2.7-1.4,5.3-1.8,7.7c-0.2,1-0.2,1.7-0.2,2.1c0,2.1,0.8,3.1,2.5,3.1c0.6,0,1.2-0.1,1.7-0.3
		c4.2-1.4,8.1-3.4,11.5-6V70.5z"/>
	<path d="M224.7,70.7l-11.1,9.1c-2.6,1.6-5.1,2.5-7.5,2.5c-4,0-6.8-1.9-8.5-5.6c-0.8-1.6-1.4-3.6-1.6-5.7
		c-5.2,7.5-11,11.3-17.4,11.3c-1.8,0-3.5-0.3-5.1-1c-5.6-2.4-8.4-7.3-8.4-14.5c0-7.2,3.1-13.7,9.4-19.5c5.8-5.4,11.9-8.1,18.3-8.1
		c4.1,0,7.2,1.7,9.4,5.1l9.3-4.5c0.7-0.3,2-0.5,3.8-0.5h2.3L211.6,59c-1,3.2-1.5,6-1.5,8.3c0,3,1,4.6,3,4.6c1.6,0,3.8-1,6.5-3
		c0.3-0.3,2-1.6,5-4L224.7,70.7z M197.4,51.3c0-3.9-1.1-5.9-3.4-5.9c-3.3,0-6.3,2.4-9.2,7.2c-2.6,4.4-3.9,8.6-3.9,12.6
		c0,3.6,1.3,5.5,3.9,5.5c4.3,0,7.9-3.6,10.8-10.8C196.8,56.9,197.4,54,197.4,51.3z"/>
	<path d="M260.2,70.8c-9.5,7.6-17.2,11.4-23.1,11.4c-6.3,0-10.6-3.1-12.9-9.4c-1.1-2.9-1.7-6.2-1.7-10c0-1.7,0.2-3.8,0.5-6.1
		c0.8-6.3,2.8-13.6,5.8-21.8c2.9-7.7,5.3-13.2,7.4-16.5l0.6-0.9l12.4-4c0.8-0.3,1.5-0.4,2.1-0.4c3.6,0,5.4,3,5.4,9.1
		c0,7.4-1.8,14.3-5.5,20.7c-2.6,4.6-7,9.9-13,16c0,3.9,0.1,6.5,0.3,7.7c0.6,3.2,1.9,5,4,5.5c0.8,0.2,1.5,0.3,2.1,0.3
		c2.4,0,5.2-0.8,8.3-2.5c1.8-1,4.3-2.6,7.4-4.8V70.8z M250.6,25.1c0-3.3-0.4-4.8-1.2-4.4c-1.7,0.8-3.7,5.3-6.2,13.7
		c-1.4,4.7-2.6,9.3-3.5,13.8C247,39.5,250.6,31.8,250.6,25.1z"/>
</g>
<g>
	<path d="M334.7,17.3c-2.4,2.7-4.1,5.3-5.1,7.7c-1,2.5-1.7,5.7-2.3,9.8l-1.8,13.7c0,8.9-1.9,17-5.8,24.2
		c-3.8,7.2-9.3,12.7-16.3,16.4c-4.1,2.2-8.3,3.2-12.8,3.2c-8.9,0-14.1-3.9-15.5-11.6c-0.1-0.3-0.4-2.8-0.9-7.4l15.4-9.4
		c-1.2,6.7-1.8,11.3-1.8,13.8c0,4,0.7,6.2,2.1,6.5c0.7,0.3,1.2,0.4,1.6,0.4h1c7.4,0,12.3-10.9,14.8-32.8c1.2-11,3.2-19.3,5.9-24.8
		c3.8-7.7,9.8-12.4,18-14L334.7,17.3z M344.3,41.4c-3.1,4.3-6.4,6.5-10,6.5c-2.5,0-4.6-1.9-6.3-5.7c6.2-7.1,9.3-13.9,9.3-20.3
		c0-5.6-2.3-9.7-6.8-12.1c-2.3-1.2-4.9-1.8-7.8-1.8c-4.5,0-9.2,1.4-14,4.2c-5.1,2.9-8.6,6.5-10.7,10.8c-1.3,2.6-1.9,4.9-1.9,6.8
		c0,2.6,1.4,4.9,4.1,6.9c0.3,0.2,2,1.3,5,3.2l-13.8,7.7c-4.4-4.1-6.7-8.4-6.7-12.9c0-1.8,0.3-3.9,0.8-6.2
		c1.9-8.5,6.8-15.3,14.8-20.5c7.1-4.6,14.8-6.9,23.1-6.9c2.6,0,5.3,0.3,7.9,1c5.4,1.4,9.6,4.1,12.8,8.2c3.3,4.3,5,9.5,5,15.6
		C348.9,31.9,347.4,37.1,344.3,41.4z"/>
	<path d="M400.1,65.5l-11.1,9.1c-2.6,1.6-5.1,2.5-7.5,2.5c-4,0-6.8-1.9-8.5-5.6c-0.8-1.6-1.4-3.6-1.6-5.7
		c-5.2,7.5-11,11.3-17.4,11.3c-1.8,0-3.5-0.3-5.1-1c-5.6-2.4-8.4-7.3-8.4-14.5c0-7.2,3.1-13.7,9.4-19.5c5.8-5.4,11.9-8.1,18.3-8.1
		c4.1,0,7.2,1.7,9.4,5.1l9.3-4.5c0.7-0.3,2-0.5,3.8-0.5h2.3L387,53.8c-1,3.2-1.5,6-1.5,8.3c0,3,1,4.6,3,4.6c1.6,0,3.8-1,6.5-3
		c0.3-0.3,2-1.6,5-4L400.1,65.5z M372.8,46.1c0-3.9-1.1-5.9-3.4-5.9c-3.3,0-6.3,2.4-9.2,7.2c-2.6,4.4-3.9,8.6-3.9,12.6
		c0,3.6,1.3,5.5,3.9,5.5c4.3,0,7.9-3.6,10.8-10.8C372.2,51.7,372.8,48.8,372.8,46.1z"/>
	<path d="M439.9,65.5L438,67c-3.8,3.1-6.6,5.2-8.3,6.2c-3.7,2.3-7,3.5-9.8,3.5c-4.2,0-7.2-2-8.8-5.8c-0.6-1.4-0.9-2.9-0.9-4.6
		c0-3.6,1.6-8.2,4.7-14c-0.9,0.3-2.4,0.6-4.4,1c-2.9,4.7-7.1,9.2-12.4,13.7v-6.4c3.3-2,5-4.7,5-8.1c-2.6-1.4-4-3.9-4-7.4
		c0-3.1,1.1-5.8,3.3-8.1c2.2-2.3,4.7-3.4,7.5-3.4c3.8,0,5.8,2.2,5.8,6.5c0,1.6-0.3,3.3-1,5.1c4.4-1.3,8.4-5.1,12-11.3l7.1-0.3
		l-6.9,19.6c-1.3,3.7-1.9,6.4-1.9,8.4c0,2.3,1.2,3.4,3.5,3.4c3,0,6.9-1.8,11.5-5.5V65.5z"/>
	<path d="M472.6,65.2c-4.4,3.6-7.6,6.2-9.6,7.5c-4,2.6-7.6,3.9-10.9,3.9c-2,0-3.6-0.3-5-1c-5.1-2.6-7.7-7.1-7.7-13.5
		c0-3,0.6-7.1,1.7-12.3c0.2-1,0.6-2.6,1.2-4.5h-3.8l2.3-10.3h4.6l4.4-13.9l16.7-3.4L461.9,34l7.6-0.4l-2,9.8L459,44l-1.8,6.1
		c-1.4,4.9-2.1,8.4-2.1,10.5c0,3.7,1.4,5.6,4.2,5.6c2.2,0,4.8-1,7.7-2.9c1.7-1.2,3.6-2.5,5.7-3.9V65.2z"/>
	<path d="M512.4,65.2c-3.2,2.8-7.4,5.3-12.4,7.5c-6,2.7-11.4,4-16.1,4c-5.6,0-9.6-1.8-12.1-5.3l-1.4-2l10-9.9
		c1.1,2.9,1.7,4.5,1.8,4.5c1.4,3.2,3.2,4.8,5.4,4.8c1.6,0,3.1-0.7,4.6-2c1.5-1.3,2.3-2.9,2.3-4.7c0-1.5-1.1-3.7-3.3-6.6
		c-1.6-2.2-3.3-4.5-5.1-6.9c-5.1,7.2-10.5,13.2-16.4,17.9v-6c7.1-5.2,12.2-13.2,15.3-23.9l0.6-1.3l15.4-2.2
		c-1.4,3.1-2.1,5.4-2.1,6.8c0,1.7,1.5,4.5,4.5,8.3c2,2.4,2.9,4.6,2.9,6.6c0,3.8-1.1,7.2-3.2,10.1c1.6-0.7,4.7-2.6,9.3-5.7V65.2z"/>
</g>
</svg>
