<?xml version="1.0" encoding="utf-8"?>
<!-- Generator: Adobe Illustrator 18.0.0, SVG Export Plug-In . SVG Version: 6.00 Build 0)  -->
<!DOCTYPE svg PUBLIC "-//W3C//DTD SVG 1.1//EN" "http://www.w3.org/Graphics/SVG/1.1/DTD/svg11.dtd">
<svg version="1.1" id="Layer_1" xmlns="http://www.w3.org/2000/svg" xmlns:xlink="http://www.w3.org/1999/xlink" x="0px" y="0px"
	 viewBox="0 0 300 300" style="enable-background:new 0 0 300 300;" xml:space="preserve">
<style type="text/css">
	.st0{fill-rule:evenodd;clip-rule:evenodd;stroke:#231F20;stroke-miterlimit:10;}
	.st1{fill-rule:evenodd;clip-rule:evenodd;fill:#FFFFFF;stroke:#231F20;stroke-miterlimit:10;}
</style>
<circle class="st0" cx="150" cy="150" r="149"/>
<path class="st1" d="M181.4,77c2.1,3.8,0.1,2.3,5.2,3.1c-2,5.7-1.6,8.8,0,14.6c4.9,0,8,3.7,11.3-2.9c1.8,3.1,0.7,9.1-0.4,15.9
	c-0.4,2.6,4.1,1.5,3.9,3.1c-1.7,12.9-5.6,20.6-13.8,28.7c11.7-0.9,21.5-3.8,30.2-7.3c0.3,2.1,0.7,4.2,1,6.3
	c15.4-2.2,17.1-9.8,22.5-22.7c6.9,13.4-0.5,39.5-5.8,40.4c1.4,1.7,2.8,3.5,4.2,5.2c-3.1,2.8-6.3,5.6-9.4,8.3
	c-3.1,4.9-1.3,8.4,4.2,12.5c-7.1,6.7-23,15.9-32.3,17.7c-0.7,1-1.4,2.1-2.1,3.1c3.4,4.5,11.9,9,24.1,2.3c0.5,10.3-26.2,20-36.6,18.6
	c1,1.7,2.1,3.5,3.1,5.2c-8.8-1.9-14.8-4.3-20.9-8.3c-0.7,2.4-1.4,4.9-2.1,7.3c-10.7-5.6-23.4-13.5-28.2-25c-0.7-0.3-1.4-0.7-2.1-1
	c-3.8,9.4-6.6,19-12.6,27.2c-19.3,19.7-25.2,20-33.8,24.1c-1.9-2.7-1.1-2-1.8-3c19.3-7.5,43.1-25.3,43-51.4
	c-9.2,5.9-18.1,7.2-31.3,10.4c-1.7,0-7.2,0.6-8.9,0.6c0.3-1.4,4.4-3.4,4.7-4.8c-6.4-5.7-37.3-17.5-40.4-28.7
	c13.4,2.6,19.8,0.5,28.9-4.7c-3-6.4-16.3-14.1-14.2-16.9c4.3-5.6-4.6-14-7.7-20.6c3.8-0.7,7.6-1.4,11.5-2.1
	c-4.9-12.7,7.7-17.4-7-49.8c8.7,2.5,11.3,6.2,16.5,10.7c2.3,2.4,6.9,8.5,9.2,11c5.8,3.9,3.6,3.7,9.4,0c5,10.4,12,18.3,21.9,24
	c7.4-10.7,12.2-24,10.3-33.8c-0.4-2.3,3.9,2.8,4.2-0.3c0.7-0.3,2.5-10.4,3.2-10.8c11.1,9.7,8,7.3,9.4,7.3c1.4-2.1,2.7-4.4,5-8.5
	c1.1-1.8,2.6,2.4,3.9,0.5c0.8-1.3,0.3-7.3,1.2-8.2c0.8-0.8,3.9,1.4,4.6,0.6c4.9-9.4,5.1-14.9,5.5-29.4
	C179.2,58.2,177.9,65.9,181.4,77z"/>
</svg>
